<svg xmlns="http://www.w3.org/2000/svg" viewBox="0 0 340.67 73.97">
  <g id="Layer_2" data-name="Layer 2">
    <g id="Layer_1-2" data-name="Layer 1">
      <g>
        <polygon points="64.09 64.9 64.08 0.36 44.23 0.36 0 64.83 19.88 64.84 47.63 24.4 47.63 48.39 47.62 48.39 37.24 48.39 37.26 64.9 64.09 64.9" fill="#fff"/>
        <rect x="73.05" y="0.39" width="39.88" height="16.45" fill="#fff"/>
        <rect x="73.06" y="24.37" width="39.88" height="16.45" fill="#fff"/>
        <rect x="122.12" y="0.4" width="16.45" height="64.49" fill="#fff"/>
        <path d="M167.61,7.12h.08l3.71,11.82h-7.63Zm-5.5,17h11l1.92,6.2h6.79L171.32.37h-7.21L153.44,30.31H160Z" fill="#fff"/>
        <path d="M189.77,30.31H184v-18h-3.21V8.13H184V6.34C184,1.75,186.45,0,190.44,0c1.71,0,2.5,0,3,.08V4.8h-1.63c-2,0-2,.62-2,2.45v.88h3.79V12.3h-3.79Z" fill="#fff"/>
        <path d="M201.65,30.31h-5.82v-18h-3.21V8.13h3.21V6.34c0-4.59,2.5-6.34,6.48-6.34,1.71,0,2.5,0,3,.08V4.8h-1.62c-2,0-2,.62-2,2.45v.88h3.79V12.3h-3.79Z" fill="#fff"/>
        <path d="M213.19,8.12V30.31h-5.81V8.12Zm0-2.63h-5.81V.06h5.81Z" fill="#fff"/>
        <path d="M222.69,30.31h-5.81V.37h5.81Z" fill="#fff"/>
        <path d="M232.19,8.12V30.31h-5.81V8.12Zm0-2.63h-5.81V.06h5.81Z" fill="#fff"/>
        <path d="M248,22.36c0,2.67-2.64,4.33-5.22,4.33A2.55,2.55,0,0,1,240.07,24c0-2.41,1.8-3,4-3.32,2.42-.37,3.38-.75,4-1.2ZM253.7,14c0-5.47-5.69-6.43-8.83-6.43-4.55,0-9.24,1-9.91,7.76h5.61c.17-1.29.67-3.08,3.59-3.08,1.51,0,3.85.12,3.85,2.58,0,1.25-1.13,1.62-2,1.75l-5.26.79c-3.7.54-6.44,2.75-6.44,7.08,0,4.54,3.4,6.42,6.73,6.42a9,9,0,0,0,7.18-3.21,10.09,10.09,0,0,0,.54,2.66H255v-.88c-.71-.25-1.29-.83-1.29-3.45Z" fill="#fff"/>
        <path d="M263.55,8.13h3.63V12.3h-3.63v12c0,1.3.05,1.8,2.42,1.8.38,0,.79-.05,1.21-.09v4.43c-.92,0-1.83.08-2.75.08h-.75c-5,0-5.94-1.92-5.94-4.8V12.3h-3V8.13h3v-6h5.81Z" fill="#fff"/>
        <path d="M273.45,17c.34-2.9,1.8-4.64,4.55-4.64,1.88,0,4.18,1.08,4.51,4.64Zm8.81,6.79a3.76,3.76,0,0,1-3.76,2.4c-4.71,0-5.05-3.73-5.22-5.39h15.23v-1c0-10.11-6-12.2-10.42-12.2-9.72,0-10.64,8.53-10.64,11.19,0,9.11,4.79,12.11,11.05,12.11,3.8,0,8.22-1.75,9.76-7.07Z" fill="#fff"/>
        <path d="M295.87,19.38c0-3.49,1.25-6.77,4.95-6.77,4,0,5,3.57,5,7.1,0,3.28-1.46,6.35-5.16,6.35S295.87,22,295.87,19.38Zm15.5-19h-5.81V11h-.08a7.1,7.1,0,0,0-6.41-3.47c-4.86,0-9.2,3.76-9.2,11.4,0,6.07,2.75,11.9,9.33,11.9a7,7,0,0,0,6.4-3.38h.08v2.83h5.69Z" fill="#fff"/>
        <path d="M176.05,40.29H160.18v6.26h14.58v5.3H160.18v7.76h16.58v5.3H154.05V35h22Z" fill="#fff"/>
        <path d="M199.33,64.92h-5.81V51.47c0-1.62-.09-4.37-3.8-4.37-2.58,0-4.58,1.75-4.58,5.08V64.92h-5.81V42.73h5.56V46H185a7.16,7.16,0,0,1,6.67-3.84c4.32,0,7.69,2.55,7.69,7.43Z" fill="#fff"/>
        <path d="M207.44,53.93c0-5.13,2.42-6.71,4.59-6.71,3.26,0,5,2.91,5,6.49,0,3-1,6.4-5,6.4C208.6,60.11,207.44,56.77,207.44,53.93Zm9.81-11.2v3.33h-.09a6.66,6.66,0,0,0-6.51-3.89c-4.88,0-9.21,3.76-9.21,11.41S205.64,65,211,65c3.51,0,5-1.63,5.93-3.34l.09.08v2.67c0,3.59-1.51,5.1-4.64,5.1-3.38,0-3.84-1.13-4.09-2.26h-6.33C202.19,72,207,74,211.61,74c10.91,0,11.2-6.38,11.2-10.23v-21Z" fill="#fff"/>
        <path d="M231.81,42.73V64.92H226V42.73Zm0-2.63H226V34.67h5.81Z" fill="#fff"/>
        <path d="M255.38,64.92h-5.81V51.47c0-1.62-.09-4.37-3.8-4.37-2.58,0-4.58,1.75-4.58,5.08V64.92h-5.81V42.73h5.56V46H241a7.13,7.13,0,0,1,6.66-3.84c4.33,0,7.69,2.55,7.69,7.43Z" fill="#fff"/>
        <path d="M263.15,51.61c.34-2.9,1.8-4.64,4.56-4.64,1.88,0,4.17,1.08,4.51,4.64ZM272,58.4a3.74,3.74,0,0,1-3.75,2.4c-4.72,0-5.06-3.73-5.22-5.39h15.23v-1c0-10.11-6.05-12.2-10.43-12.2-9.72,0-10.64,8.53-10.64,11.2,0,9.1,4.8,12.1,11.06,12.1,3.8,0,8.21-1.75,9.76-7.07Z" fill="#fff"/>
        <path d="M285.37,51.61c.33-2.9,1.79-4.64,4.55-4.64,1.88,0,4.17,1.08,4.51,4.64Zm8.81,6.79a3.76,3.76,0,0,1-3.76,2.4c-4.72,0-5.05-3.73-5.22-5.39h15.23v-1c0-10.11-6-12.2-10.43-12.2-9.72,0-10.63,8.53-10.63,11.2,0,9.1,4.79,12.1,11.05,12.1,3.8,0,8.22-1.75,9.76-7.07Z" fill="#fff"/>
        <path d="M302.41,42.73H308v3.82h.09c1.21-2.23,2.54-4.38,6.08-4.38a10.73,10.73,0,0,1,1.13.08v5.88A10.15,10.15,0,0,0,313.6,48c-4.54,0-5.38,2.84-5.38,5.31V64.92h-5.81Z" fill="#fff"/>
        <path d="M329.31,49.51c-.25-1.41-.75-2.91-3.91-2.91s-3.59,1.21-3.59,2.16c0,3.5,13.88,1,13.88,9.1,0,6.45-6.23,7.61-9.7,7.61-5.05,0-10.51-1.75-10.68-7.65h6c0,1.86,1.17,3.23,4.84,3.23,3,0,3.72-1.45,3.72-2.28,0-3.69-13.75-.91-13.75-9.17,0-3.25,2-7.43,8.94-7.43,4.33,0,9.48,1.09,9.94,7.34Z" fill="#fff"/>
        <rect x="73.05" y="48.47" width="39.88" height="16.45" fill="#fff"/>
      </g>
      <path d="M335.79,45.62A2.17,2.17,0,1,1,338,47.86,2.17,2.17,0,0,1,335.79,45.62ZM338,48.3a2.67,2.67,0,1,0-2.72-2.68A2.67,2.67,0,0,0,338,48.3Zm-.57-2.47h.54l.81,1.34h.53l-.88-1.36a.8.8,0,0,0,.8-.85c0-.6-.36-.87-1.09-.87h-1.17v3.08h.46Zm0-.39v-1H338c.33,0,.67.07.67.46s-.35.5-.75.5Z" fill="#fff"/>
    </g>
  </g>
</svg>
